<svg width="16" height="16" viewBox="0 0 16 16" fill="none" xmlns="http://www.w3.org/2000/svg">
<path d="M12.9498 1.63605L1.63606 12.9498C1.24554 13.3403 1.24554 13.9734 1.63606 14.364C2.02659 14.7545 2.65975 14.7545 3.05028 14.364L14.364 3.05026C14.7545 2.65973 14.7545 2.02657 14.364 1.63605C13.9735 1.24552 13.3403 1.24552 12.9498 1.63605Z" fill="white"/>
<path fill-rule="evenodd" clip-rule="evenodd" d="M3.0501 1.63598L14.3641 12.95C14.5463 13.1386 14.6471 13.3912 14.6448 13.6534C14.6425 13.9156 14.5373 14.1664 14.3519 14.3518C14.1665 14.5372 13.9157 14.6424 13.6535 14.6447C13.3913 14.6469 13.1387 14.5461 12.9501 14.364L1.6361 3.04998C1.54059 2.95773 1.46441 2.84739 1.412 2.72538C1.35959 2.60338 1.332 2.47216 1.33085 2.33938C1.32969 2.2066 1.355 2.07492 1.40528 1.95202C1.45556 1.82913 1.52981 1.71747 1.6237 1.62358C1.7176 1.52969 1.82925 1.45544 1.95214 1.40516C2.07504 1.35487 2.20672 1.32957 2.3395 1.33073C2.47228 1.33188 2.6035 1.35947 2.7255 1.41188C2.84751 1.46428 2.95785 1.54047 3.0501 1.63598Z" fill="white"/>
</svg>
